<svg xmlns="http://www.w3.org/2000/svg" viewBox="0 0 360 92" role="img" aria-label="LegoLens"><defs><linearGradient id="g" x1="0" x2="1" y1="0" y2="1"><stop stop-color="#2f7dd3"/><stop offset="1" stop-color="#00b9c7"/></linearGradient></defs><rect x="4" y="8" width="76" height="76" rx="22" fill="#0f1d2e"/><circle cx="42" cy="46" r="25" fill="none" stroke="url(#g)" stroke-width="8"/><path d="M42 24v16l14-8a25 25 0 0 0-14-8Zm19 22H45l8 14a25 25 0 0 0 8-14ZM42 68V52l-14 8a25 25 0 0 0 14 8ZM23 46h16l-8-14a25 25 0 0 0-8 14Z" fill="#e9f7ff"/><text x="96" y="48" font-family="Inter,Arial,sans-serif" font-size="34" font-weight="800" fill="#102033">Lego</text><text x="184" y="48" font-family="Inter,Arial,sans-serif" font-size="34" font-weight="800" fill="#2f7dd3">Lens</text><text x="98" y="69" font-family="Inter,Arial,sans-serif" font-size="12" font-weight="700" letter-spacing="2" fill="#637083">CASE INTELLIGENCE WORKSPACE</text></svg>
