<svg xmlns="http://www.w3.org/2000/svg" viewBox="0 0 96 96" role="img" aria-label="LegoLens icon"><defs><linearGradient id="g" x1="0" x2="1" y1="0" y2="1"><stop stop-color="#2f7dd3"/><stop offset="1" stop-color="#00b9c7"/></linearGradient></defs><rect width="96" height="96" rx="24" fill="#0f1d2e"/><circle cx="48" cy="48" r="30" fill="none" stroke="url(#g)" stroke-width="9"/><path d="M48 25v18l16-9a30 30 0 0 0-16-9Zm22 23H52l9 16a30 30 0 0 0 9-16ZM48 71V53l-16 9a30 30 0 0 0 16 9ZM26 48h18l-9-16a30 30 0 0 0-9 16Z" fill="#e9f7ff" opacity=".95"/><rect x="16" y="18" width="9" height="9" rx="2" fill="#00b9c7"/><rect x="28" y="12" width="7" height="7" rx="2" fill="#2f7dd3"/><rect x="70" y="69" width="10" height="10" rx="2" fill="#5ad0c6"/></svg>
