<svg xmlns="http://www.w3.org/2000/svg" width="1000" height="560" viewBox="0 0 1000 560"><rect width="1000" height="560" fill="#f8fafc"/><rect x="32" y="28" width="936" height="64" rx="16" fill="#0f172a"/><text x="58" y="68" font-family="Arial" font-size="24" font-weight="700" fill="#ffffff">LegoLens Core v3.0.0 - Overview Dashboard</text><rect x="32" y="122" width="220" height="380" rx="16" fill="#ffffff" stroke="#e2e8f0"/><text x="56" y="158" font-family="Arial" font-size="18" font-weight="700" fill="#0f172a">Case Pack Library</text><text x="56" y="205" font-family="Arial" font-size="14" fill="#334155">Case pack 1</text><text x="56" y="238" font-family="Arial" font-size="14" fill="#334155">Case pack 2</text><text x="56" y="271" font-family="Arial" font-size="14" fill="#334155">Case pack 3</text><text x="56" y="304" font-family="Arial" font-size="14" fill="#334155">Demo mode</text><rect x="288" y="122" width="300" height="180" rx="16" fill="#ffffff" stroke="#e2e8f0"/><text x="316" y="158" font-family="Arial" font-size="18" font-weight="700" fill="#0f172a">Runtime status</text><rect x="316" y="184" width="110" height="64" rx="12" fill="#eff6ff" stroke="#2563eb"/><text x="344" y="222" font-family="Arial" font-size="24" font-weight="700" fill="#1d4ed8">104</text><text x="316" y="274" font-family="Arial" font-size="13" fill="#334155">Persistent candidate records</text><rect x="622" y="122" width="346" height="180" rx="16" fill="#ffffff" stroke="#e2e8f0"/><text x="650" y="158" font-family="Arial" font-size="18" font-weight="700" fill="#0f172a">Review-first workflow</text><text x="650" y="202" font-family="Arial" font-size="14" fill="#334155">candidate to triaged to reviewed</text><text x="650" y="238" font-family="Arial" font-size="14" fill="#334155">reviewed is separate from share-approved</text><rect x="288" y="334" width="680" height="168" rx="16" fill="#ffffff" stroke="#e2e8f0"/><text x="316" y="370" font-family="Arial" font-size="18" font-weight="700" fill="#0f172a">Navigation</text><text x="316" y="416" font-family="Arial" font-size="14" fill="#334155">Datasets - Content Updates - Media Library - Review - Reports - Admin</text><text x="316" y="456" font-family="Arial" font-size="14" fill="#334155">Shared attribution chain visible across interface sections.</text></svg>
