<svg xmlns="http://www.w3.org/2000/svg" width="1200" height="760" viewBox="0 0 1200 760"><rect width="1200" height="760" fill="#07111d"/><rect x="28" y="28" width="220" height="704" rx="22" fill="#0d1b2a" stroke="#1f3b52"/><text x="56" y="76" fill="#e6f7ff" font-family="Arial" font-size="25" font-weight="700">LegoLens Core</text><text x="56" y="104" fill="#8fb6c8" font-family="Arial" font-size="14">v2.0 review-first</text><text x="56" y="154" fill="#8fb6c8" font-family="Arial" font-size="12">OVERVIEW</text><g fill="#13283a"><rect x="48" y="174" width="160" height="34" rx="9"/><rect x="48" y="216" width="160" height="34" rx="9"/><rect x="48" y="258" width="160" height="34" rx="9"/><rect x="48" y="300" width="160" height="34" rx="9"/><rect x="48" y="342" width="160" height="34" rx="9"/></g><g fill="#e6f7ff" font-family="Arial" font-size="14"><text x="64" y="196">Datasets</text><text x="64" y="238">Content Updates</text><text x="64" y="280">Ingestion</text><text x="64" y="322">Exchange</text><text x="64" y="364">Graph Stats</text></g><rect x="280" y="40" width="880" height="680" rx="28" fill="#0b1724" stroke="#1f3b52"/><text x="320" y="98" fill="#f8fafc" font-family="Arial" font-size="34" font-weight="700">Overview dashboard</text><text x="320" y="130" fill="#9fb6c3" font-family="Arial" font-size="17">Daily entry point for review-first intelligence workflows.</text><g font-family="Arial"><rect x="320" y="180" width="250" height="170" rx="18" fill="#102235" stroke="#2dd4bf"/><text x="345" y="220" fill="#e6f7ff" font-size="21" font-weight="700">Datasets</text><text x="345" y="265" fill="#31d0aa" font-size="46" font-weight="700">6</text><text x="345" y="304" fill="#9fb6c3" font-size="15">Case packs with content</text><rect x="600" y="180" width="250" height="170" rx="18" fill="#102235" stroke="#315f7a"/><text x="625" y="220" fill="#e6f7ff" font-size="21" font-weight="700">Content Updates</text><text x="625" y="265" fill="#60a5fa" font-size="30" font-weight="700">candidate-only</text><text x="625" y="304" fill="#9fb6c3" font-size="15">No auto-publication</text><rect x="880" y="180" width="240" height="170" rx="18" fill="#102235" stroke="#315f7a"/><text x="905" y="220" fill="#e6f7ff" font-size="21" font-weight="700">Exchange</text><text x="905" y="265" fill="#60a5fa" font-size="30" font-weight="700">STIX/MISP</text><text x="905" y="304" fill="#9fb6c3" font-size="15">Share approved only</text><rect x="320" y="390" width="800" height="230" rx="18" fill="#0d1b2a" stroke="#24465f"/><text x="350" y="430" fill="#e6f7ff" font-size="22" font-weight="700">Workflow</text><text x="350" y="475" fill="#9fb6c3" font-size="17">source → candidate → deduplicate → review → approved content → graph/report/exchange</text><rect x="350" y="515" width="700" height="20" rx="10" fill="#172b3d"/><rect x="350" y="515" width="585" height="20" rx="10" fill="#31d0aa"/></g></svg>