<svg xmlns="http://www.w3.org/2000/svg" width="1200" height="760" viewBox="0 0 1200 760"><rect width="1200" height="760" fill="#07111d"/><rect x="45" y="40" width="1110" height="680" rx="28" fill="#0b1724" stroke="#1f3b52"/><text x="85" y="98" fill="#f8fafc" font-family="Arial" font-size="34" font-weight="700">Case Pack Datasets</text><text x="85" y="130" fill="#9fb6c3" font-family="Arial" font-size="17">Browse each case as a dataset with content, sources, evidence and previews.</text><g font-family="Arial"> <rect x="85" y="180" width="320" height="210" rx="18" fill="#102235" stroke="#2dd4bf"/><text x="110" y="220" fill="#e6f7ff" font-size="22" font-weight="700">Iran</text><rect x="110" y="245" width="74" height="50" rx="10" fill="#24465f"/><rect x="194" y="245" width="74" height="50" rx="10" fill="#315f7a"/><rect x="278" y="245" width="74" height="50" rx="10" fill="#31d0aa"/><text x="110" y="335" fill="#9fb6c3" font-size="15">476 items • 382 sources • 476 evidence</text><rect x="440" y="180" width="320" height="210" rx="18" fill="#102235" stroke="#315f7a"/><text x="465" y="220" fill="#e6f7ff" font-size="22" font-weight="700">Sudan</text><rect x="465" y="245" width="74" height="50" rx="10" fill="#24465f"/><rect x="549" y="245" width="74" height="50" rx="10" fill="#315f7a"/><rect x="633" y="245" width="74" height="50" rx="10" fill="#60a5fa"/><text x="465" y="335" fill="#9fb6c3" font-size="15">32 items • 10 sources • 32 evidence</text><rect x="795" y="180" width="320" height="210" rx="18" fill="#102235" stroke="#315f7a"/><text x="820" y="220" fill="#e6f7ff" font-size="22" font-weight="700">Gaza Regional Spillover</text><rect x="820" y="245" width="74" height="50" rx="10" fill="#24465f"/><rect x="904" y="245" width="74" height="50" rx="10" fill="#315f7a"/><rect x="988" y="245" width="74" height="50" rx="10" fill="#60a5fa"/><text x="820" y="335" fill="#9fb6c3" font-size="15">32 items • 10 sources • 32 evidence</text><rect x="85" y="430" width="320" height="190" rx="18" fill="#102235" stroke="#315f7a"/><text x="110" y="470" fill="#e6f7ff" font-size="22" font-weight="700">Ukraine Donbas</text><text x="110" y="525" fill="#9fb6c3" font-size="15">Content cards, claims and graph context.</text><rect x="440" y="430" width="320" height="190" rx="18" fill="#102235" stroke="#315f7a"/><text x="465" y="470" fill="#e6f7ff" font-size="22" font-weight="700">Red Sea Yemen</text><text x="465" y="525" fill="#9fb6c3" font-size="15">Maritime, regional and source context.</text><rect x="795" y="430" width="320" height="190" rx="18" fill="#102235" stroke="#315f7a"/><text x="820" y="470" fill="#e6f7ff" font-size="22" font-weight="700">Sahel</text><text x="820" y="525" fill="#9fb6c3" font-size="15">Cross-border and regional monitoring.</text></g></svg>