<svg xmlns="http://www.w3.org/2000/svg" width="1200" height="760" viewBox="0 0 1200 760"><rect width="1200" height="760" fill="#07111d"/><rect x="55" y="45" width="1090" height="670" rx="28" fill="#0b1724" stroke="#1f3b52"/><text x="95" y="105" fill="#f8fafc" font-family="Arial" font-size="34" font-weight="700">Graph Dataset Statistics</text><text x="95" y="137" fill="#9fb6c3" font-family="Arial" font-size="17">Dataset coverage, graph coverage and report coverage with stable fallback charts.</text><g font-family="Arial"><rect x="95" y="190" width="240" height="160" rx="18" fill="#102235" stroke="#2dd4bf"/><text x="125" y="235" fill="#e6f7ff" font-size="20" font-weight="700">Items</text><text x="125" y="285" fill="#31d0aa" font-size="42" font-weight="700">668</text><rect x="365" y="190" width="240" height="160" rx="18" fill="#102235" stroke="#315f7a"/><text x="395" y="235" fill="#e6f7ff" font-size="20" font-weight="700">Sources</text><text x="395" y="285" fill="#60a5fa" font-size="42" font-weight="700">442</text><rect x="635" y="190" width="240" height="160" rx="18" fill="#102235" stroke="#315f7a"/><text x="665" y="235" fill="#e6f7ff" font-size="20" font-weight="700">Evidence</text><text x="665" y="285" fill="#60a5fa" font-size="42" font-weight="700">668</text><rect x="905" y="190" width="200" height="160" rx="18" fill="#102235" stroke="#315f7a"/><text x="935" y="235" fill="#e6f7ff" font-size="20" font-weight="700">Cases</text><text x="935" y="285" fill="#fbbf24" font-size="42" font-weight="700">6</text><rect x="95" y="410" width="1010" height="190" rx="18" fill="#0d1b2a" stroke="#24465f"/><text x="125" y="455" fill="#e6f7ff" font-size="20" font-weight="700">Report coverage by type</text><text x="125" y="500" fill="#9fb6c3" font-size="15">Monitoring Brief</text><rect x="300" y="488" width="650" height="16" rx="8" fill="#172b3d"/><rect x="300" y="488" width="455" height="16" rx="8" fill="#31d0aa"/><text x="970" y="503" fill="#e6f7ff" font-size="15">70%</text><text x="125" y="535" fill="#9fb6c3" font-size="15">Evidence Appendix</text><rect x="300" y="523" width="650" height="16" rx="8" fill="#172b3d"/><rect x="300" y="523" width="358" height="16" rx="8" fill="#60a5fa"/><text x="970" y="538" fill="#e6f7ff" font-size="15">55%</text><text x="125" y="570" fill="#9fb6c3" font-size="15">Source Reliability</text><rect x="300" y="558" width="650" height="16" rx="8" fill="#172b3d"/><rect x="300" y="558" width="312" height="16" rx="8" fill="#fbbf24"/><text x="970" y="573" fill="#e6f7ff" font-size="15">48%</text></g></svg>